<svg xmlns="http://www.w3.org/2000/svg" width="63" height="62" fill="none"><g filter="url(#a)"><path stroke="#fff" stroke-linecap="round" stroke-linejoin="round" stroke-width="2" d="M45.833 27.434c-4.798-4.548-11.249-6.346-17.354-5.396m13.104 10.236a13.96 13.96 0 0 0-6.729-3.742M21.75 32.274c.94-.94 1.981-1.719 3.088-2.337M26 36.889a8 8 0 0 1 3.542-2.062"/><path fill="#fff" fill-rule="evenodd" d="M31.667 42.333a1.77 1.77 0 1 0 0-3.541 1.77 1.77 0 0 0 0 3.541" clip-rule="evenodd"/><path stroke="#fff" stroke-linecap="round" stroke-linejoin="round" stroke-width="2" d="M43 42.333 20.334 19.667M17.5 27.434a21 21 0 0 1 2.48-2.012"/></g><defs><filter id="a" width="38" height="38" x="12.667" y="14" color-interpolation-filters="sRGB" filterUnits="userSpaceOnUse"><feFlood flood-opacity="0" result="BackgroundImageFix"/><feColorMatrix in="SourceAlpha" result="hardAlpha" values="0 0 0 0 0 0 0 0 0 0 0 0 0 0 0 0 0 0 127 0"/><feOffset dy="2"/><feGaussianBlur stdDeviation="1"/><feComposite in2="hardAlpha" operator="out"/><feColorMatrix values="0 0 0 0 0.500625 0 0 0 0 0.176042 0 0 0 0 0.039375 0 0 0 0.2 0"/><feBlend in2="BackgroundImageFix" result="effect1_dropShadow_113_160"/><feBlend in="SourceGraphic" in2="effect1_dropShadow_113_160" result="shape"/></filter></defs></svg>